<svg width="172" height="44" viewBox="0 0 172 44" fill="none" xmlns="http://www.w3.org/2000/svg">
<path d="M10.8798 7.31374C9.21224 7.72046 6.62956 9.02197 5.28738 10.1201C1.80991 13.0078 0 16.831 0 21.3253C0 24.9044 1.0168 27.8328 3.15209 30.4358C6.40586 34.3607 11.9983 36.5163 16.6349 35.6012C17.428 35.4385 18.0991 35.3572 18.0991 35.4182C18.0991 35.4589 17.8754 35.6825 17.5907 35.9062C16.5942 36.679 16.8383 37.1264 20.092 40.4819C23.1831 43.6746 23.6712 44 25.1964 44C26.8029 44 28.9179 42.4748 29.6093 40.8276C30.016 39.8718 29.955 37.9602 29.5076 36.9841C29.1416 36.191 28.0231 34.8284 25.8675 32.5915L24.7693 31.4323L25.7048 30.2935C27.6977 27.8328 28.7349 24.8638 28.7349 21.5286C28.7349 18.9663 28.4298 17.5021 27.4333 15.3465C25.5828 11.381 22.085 8.43222 17.9364 7.37475C16.0858 6.90702 12.71 6.86635 10.8798 7.31374ZM16.9196 9.24567C21.2715 10.1405 25.3184 14.106 26.3555 18.4986C26.8029 20.4305 26.6402 23.6843 26.0302 25.4738C25.3997 27.2634 23.7729 29.6021 22.329 30.8019C20.0107 32.7338 17.4687 33.6489 14.4386 33.6693C10.9611 33.6693 8.1751 32.4898 5.59242 29.8868C2.92839 27.1821 1.89125 24.5181 2.09461 20.7152C2.2573 17.3394 3.47747 14.6957 5.93813 12.3774C7.40233 10.9946 9.61896 9.75407 11.4289 9.30668C12.7914 8.9813 15.5164 8.96096 16.9196 9.24567ZM26.8436 36.9841C27.8604 38.3059 28.0028 38.8956 27.5757 40.0345C27.1486 41.1326 26.2335 41.763 25.0744 41.763C24.3016 41.763 24.1592 41.641 22.0036 39.3634L19.7667 36.9434L21.6172 35.0725L23.4882 33.2016L24.7693 34.5844C25.4811 35.3368 26.3962 36.4146 26.8436 36.9841Z" />
<path d="M11.7949 11.3809C8.29712 12.3164 5.51108 14.9398 4.47394 18.3359C3.88419 20.2271 3.92487 22.9318 4.55529 24.7011C6.06015 28.992 9.82233 31.656 14.3369 31.6763C22.5324 31.6763 27.474 22.7488 23.0814 15.8345C22.2273 14.4924 20.4581 12.8451 19.1566 12.1944C17.001 11.0962 14.0522 10.7709 11.7949 11.3809ZM16.8993 13.4959C20.7428 14.6957 23.3051 18.8646 22.5934 22.7081C21.7596 27.2634 17.4077 30.3748 13.0558 29.5817C7.54469 28.5649 4.49428 22.8098 6.83292 17.8681C8.60216 14.0856 12.9134 12.2351 16.8993 13.4959Z" />
<path d="M12.6896 15.9565C10.778 16.5056 8.90712 18.6206 8.62242 20.5728C8.05301 24.3147 11.6525 27.6905 15.4147 26.938C19.9903 26.0229 21.6578 20.6948 18.4244 17.4411C16.8992 15.9159 14.7232 15.3668 12.6896 15.9565ZM13.3607 18.7833C14.9266 19.739 14.2148 22.037 12.3643 22.037C10.3103 22.037 9.86292 19.2306 11.7948 18.5189C12.3439 18.3155 12.71 18.3765 13.3607 18.7833Z" />
<path d="M47.16 31.888L43.736 20.752C43.576 20.24 43.416 19.728 43.416 19.024C43.416 17.808 44.504 16.848 45.688 16.848C47.416 16.848 47.672 17.776 47.992 19.12L50.456 29.36H50.52L52.504 20.048C52.888 18.224 53.272 16.784 55.448 16.848C57.656 16.784 58.104 18.192 58.52 20.048L60.536 29.36H60.6L62.904 19.12C63.192 17.776 63.48 16.848 65.208 16.848C66.392 16.848 67.48 17.808 67.48 19.024C67.48 19.728 67.32 20.24 67.16 20.752L63.736 31.888C63.064 34.096 62.552 34.416 60.696 34.416C58.744 34.416 58.264 33.84 57.784 31.984L55.48 22.8H55.416L53.112 31.984C52.632 33.84 52.152 34.416 50.2 34.416C48.344 34.416 47.832 34.096 47.16 31.888ZM82.6903 26.512H72.1302C72.1302 28.976 73.7302 30.768 76.4502 30.768C79.9703 30.768 79.9703 28.464 81.8583 28.464C82.9783 28.464 83.7782 29.424 83.7782 30.288C83.7782 33.104 79.2663 34.416 76.4502 34.416C69.9222 34.416 67.4582 30 67.4582 25.936C67.4582 20.496 70.7543 16.848 76.2902 16.848C81.6663 16.848 84.7383 20.656 84.7383 24.496C84.7383 26.096 84.2583 26.512 82.6903 26.512ZM72.1302 23.824H80.3223C80.0662 21.68 78.4663 20.112 76.3863 20.112C74.0503 20.112 72.6423 21.552 72.1302 23.824ZM86.156 32.208V12.88C86.156 11.344 87.084 10.544 88.492 10.544C89.9 10.544 90.828 11.344 90.828 12.88V19.216H90.892C91.82 17.712 93.42 16.848 95.5 16.848C100.428 16.848 102.7 21.04 102.7 25.52C102.7 31.568 99.276 34.416 95.372 34.416C93.1 34.416 91.212 33.456 90.444 31.472H90.38V32.208C90.38 33.648 89.644 34.416 88.268 34.416C86.828 34.416 86.156 33.648 86.156 32.208ZM98.028 25.68C98.028 23.504 97.292 20.496 94.316 20.496C91.468 20.464 90.572 23.28 90.572 25.68C90.572 28.336 91.596 30.768 94.316 30.768C96.812 30.704 98.028 28.432 98.028 25.68ZM107.191 32.752L102.775 20.464C102.647 20.08 102.487 19.568 102.487 19.28C102.487 17.616 103.639 16.848 104.759 16.848C106.519 16.848 106.967 18.32 107.095 18.8L110.231 29.36H110.295L113.431 18.8C113.559 18.32 114.007 16.848 115.767 16.848C116.887 16.848 118.039 17.616 118.039 19.28C118.039 19.568 117.879 20.08 117.751 20.464L113.335 32.752C112.887 34 112.599 34.416 110.263 34.416C107.927 34.416 107.639 34 107.191 32.752ZM134.038 21.648V29.488C134.038 31.44 134.518 31.888 134.518 32.624C134.518 33.68 133.526 34.416 132.406 34.416C130.39 34.416 129.718 33.136 129.654 31.696C127.83 33.712 125.718 34.416 123.254 34.416C120.598 34.416 117.974 32.592 117.974 29.648C117.974 25.776 120.918 24.688 124.502 24.272L127.35 23.952C128.47 23.824 129.366 23.568 129.366 22.224C129.366 20.88 127.99 20.304 126.422 20.304C122.966 20.304 122.87 22.864 121.014 22.864C119.83 22.864 119.03 22.032 119.03 21.072C119.03 19.216 121.654 16.848 126.454 16.848C130.934 16.848 134.038 18.288 134.038 21.648ZM129.366 27.952V26.128C128.854 26.608 127.894 26.768 127.35 26.864L125.654 27.12C123.702 27.408 122.646 28.016 122.646 29.424C122.646 30.48 123.638 31.344 125.238 31.344C127.798 31.344 129.366 29.68 129.366 27.952ZM136.481 32.08V12.88C136.481 11.344 137.409 10.544 138.817 10.544C140.225 10.544 141.153 11.344 141.153 12.88V23.504L146.337 17.744C146.817 17.232 147.425 16.848 148.129 16.848C149.185 16.848 150.337 17.776 150.337 18.96C150.337 19.792 150.049 20.048 149.633 20.496L146.177 24.112L151.041 30.64C151.201 30.864 151.521 31.376 151.521 32.144C151.521 33.328 150.561 34.416 149.313 34.416C148.161 34.416 147.553 33.84 147.201 33.328L142.785 27.088L141.153 28.528V32.08C141.153 33.616 140.225 34.416 138.817 34.416C137.409 34.416 136.481 33.616 136.481 32.08ZM153.285 30.256V20.336H152.485C151.173 20.336 150.629 19.824 150.629 18.8C150.629 17.776 151.173 17.264 152.485 17.264H153.285V14.416C153.285 12.88 154.213 12.08 155.621 12.08C157.029 12.08 157.957 12.88 157.957 14.416V17.264H159.365C160.741 17.264 161.477 17.68 161.477 18.8C161.477 19.92 160.741 20.336 159.365 20.336H157.957V29.68C157.957 30.384 158.341 30.768 159.173 30.768H159.845C160.869 30.768 161.477 31.344 161.477 32.336C161.477 33.68 160.325 34.416 158.085 34.416C154.693 34.416 153.285 33.008 153.285 30.256Z" />
</svg>
